<svg xmlns="http://www.w3.org/2000/svg" viewBox="0 0 512 512"><defs><style>.cls-1{fill:#009fe3;}.cls-2{fill:#fcfbf6;}.cls-2,.cls-3{fill-rule:evenodd;}.cls-3,.cls-5{fill:#fff;}.cls-4{fill:#dd931d;}</style></defs><title>Element 1</title><g id="Ebene_2" data-name="Ebene 2"><g id="Ebene_1-2" data-name="Ebene 1"><rect class="cls-1" width="512" height="512" rx="45.45"/><path class="cls-2" d="M166.74,205.1a4.36,4.36,0,0,0-1.76,2.33c-.32.95-1.12,8.4-1.8,16.55s-1.87,22.93-2.66,32.84-1.58,20.65-1.76,23.89a55.46,55.46,0,0,1-.46,5.76c-.07-.08-.47-3.48-.89-7.57s-1.32-11.87-2-17.28-1.63-12.79-2.15-16.4a56.4,56.4,0,0,0-1.64-8.2,7.22,7.22,0,0,0-1.39-2.23,6,6,0,0,0-2.35-.85,5.17,5.17,0,0,0-3.16.51,6,6,0,0,0-2.22,2.16,17.32,17.32,0,0,0-1.18,3.47c-.26,1.15-1.67,9.14-3.14,17.76s-2.66,16.27-2.66,17-.18,1.15-.4.9a82.78,82.78,0,0,1-1.95-9.18c-.87-4.79-1.83-9.74-2.15-11a5.77,5.77,0,0,0-1.91-3.28c-1.22-.91-1.42-.93-2.62-.26-1,.54-1.44,1.35-1.86,3.11-.31,1.31-.75,3.46-1,4.77-.37,2.23-.5,2.41-2.08,2.74-.92.19-3.4.49-5.5.66-3.48.29-4,.46-5.4,1.9a4.25,4.25,0,0,0-1.58,3.11,4.13,4.13,0,0,0,1.46,3l1.47,1.46,7.18-.35a47.25,47.25,0,0,1,7.17-.07c0,.15.64,3.2,1.43,6.77a68,68,0,0,0,2.35,8.62,6.5,6.5,0,0,0,2,2.68,14.66,14.66,0,0,0,2.46,1,5.06,5.06,0,0,0,2.73-.08,4.23,4.23,0,0,0,2.13-2.11,141.12,141.12,0,0,0,3.16-14c1.31-6.81,2.76-14.87,3.22-17.9a33.21,33.21,0,0,1,1.24-6c.22-.25.4.87.4,2.49s.54,8.95,1.2,16.3,1.75,19.07,2.43,26.05c.78,8,1.51,13.21,2,14.06a4.35,4.35,0,0,0,1.91,1.83,10.45,10.45,0,0,0,3,.46,5.91,5.91,0,0,0,2.85-.75,6.66,6.66,0,0,0,1.73-2,13,13,0,0,0,1-3.21c.17-1.06.85-8.35,1.5-16.21s2.06-24.05,3.12-36,2-22,2.13-22.21.21.21.23,1.06.57,8.85,1.23,17.77,1.41,18.92,1.66,22.22.8,10.86,1.22,16.8,1.19,16.28,1.72,23c.64,8.17,1.18,12.62,1.66,13.54a5.33,5.33,0,0,0,1.74,1.93,5.83,5.83,0,0,0,2.89.3,9,9,0,0,0,3.08-1,5.19,5.19,0,0,0,1.7-2.08c.27-.72,1.13-8.65,1.9-17.62s2.08-23.56,2.89-32.41,1.59-18,1.74-20.29.45-4.2.68-4.2.41.72.41,1.59,1.06,7.95,2.36,15.72,2.72,15.74,3.17,17.7c.65,2.81,1.19,3.95,2.57,5.42a6,6,0,0,0,3.42,2.1,4.35,4.35,0,0,0,3.19-.7,6.47,6.47,0,0,0,2.47-3.5c.52-1.41,2.5-10.54,4.39-20.3s3.53-17.84,3.65-18,.23.34.23,1,.75,5.43,1.67,10.52,2.34,12.12,3.15,15.6c.86,3.7,1.87,6.84,2.43,7.55a6.48,6.48,0,0,0,2.79,1.77,5.21,5.21,0,0,0,3.57,0,6.41,6.41,0,0,0,2.74-2,55.05,55.05,0,0,0,3.3-8.25l2.29-6.83,3.07.17c1.69.09,6.2.43,10,.76,4.32.37,7.56.43,8.53.17a4.69,4.69,0,0,0,2.33-1.59,6.45,6.45,0,0,0,.76-3,3.22,3.22,0,0,0-1.18-2.8c-1-.89-2.22-1.09-9.51-1.61-4.59-.33-8.62-.82-9-1.1a2.4,2.4,0,0,1-.62-1.64,10.69,10.69,0,0,0-.75-3,4.19,4.19,0,0,0-2.18-2.48,4.37,4.37,0,0,0-2.92-.16,5.46,5.46,0,0,0-2.42,1.67c-.51.69-2,5-3.31,9.6s-2.51,8.68-2.67,9.08-.46-.16-.71-1.44-1.37-7.78-2.54-14.64-2.49-13.66-2.92-15.09a11.23,11.23,0,0,0-2.15-4,4.05,4.05,0,0,0-3.54-1.36,4.74,4.74,0,0,0-3.82,1.44,12.46,12.46,0,0,0-2.63,3.76c-.55,1.27-2.11,8.14-3.47,15.24s-2.69,14.28-3,15.94a11.14,11.14,0,0,1-.67,2.84c-.09-.09-1.67-8.17-3.5-18-2.12-11.3-3.7-18.51-4.32-19.72a10.2,10.2,0,0,0-2.25-2.92,5.63,5.63,0,0,0-3.86-1c-2.37,0-2.66.12-3.48,1.48a15.83,15.83,0,0,0-1.44,4.2c-.29,1.5-1.38,11.26-2.42,21.69s-2,20.69-2.19,22.8-.44,4.49-.6,5.28c-.2.95-.52-.87-.93-5.28-.34-3.7-1.38-16-2.31-27.36s-2.12-26.16-2.64-32.89-1.07-13-1.23-13.92a16.38,16.38,0,0,0-1.23-3.68,5.55,5.55,0,0,0-2.56-2.76,8.51,8.51,0,0,0-3-.76,6.87,6.87,0,0,0-2.57.61"/><path class="cls-3" d="M277.25,60a1.62,1.62,0,0,0-.81,1.44c0,.6,1.81,3.15,4,5.67s9.39,10.65,16,18.06c11.82,13.31,12,13.49,15.06,13.91,1.69.23,12.43.42,23.86.42h20.78l4.92,5.23c2.71,2.88,7.51,8.18,10.68,11.77s6.72,7,7.88,7.55c1.86.88,7.39,1,43.9.83,37.78-.17,41.93-.29,43.44-1.28a10.64,10.64,0,0,0,2.92-3.6c1.09-2.2,1.24-4,1.24-14.94,0-12-.06-12.56-1.63-15.7-1.27-2.53-2.16-3.45-3.93-4.06s-11-.79-32.78-.81l-30.48,0-9.67-10.64c-5.31-5.84-10.88-11.37-12.37-12.27l-2.72-1.63L327.8,59.8c-27.35-.06-50.1,0-50.55.22m123.3,78.54c-.24.24-.44,4.38-.44,9.19,0,7.08.18,8.81,1,9.11.53.2,4.72-.25,9.33-1s14.4-2.26,21.78-3.34,13.93-2.14,14.55-2.34a2.72,2.72,0,0,0,1.51-1.81,29.08,29.08,0,0,0,.17-5.68l-.2-4.23-23.61-.17c-13-.1-23.8,0-24.05.27m16.54,28c-14.24,2.25-26.56,4.3-27.38,4.57a5,5,0,0,0-2.42,2.68,19.64,19.64,0,0,0-.92,6.1c0,3.27.28,4.23,1.76,6,1.73,2.06,1.81,2.08,6.05,1.66,2.36-.24,7.83-1,12.15-1.69s15.57-2.46,25-3.91,17.62-2.83,18.19-3.05a5.3,5.3,0,0,0,2-2.25,14.7,14.7,0,0,0,1-5.44,19.35,19.35,0,0,0-.6-5.16,8.8,8.8,0,0,0-1.68-2.66c-.73-.73-2.09-1.06-4.14-1-1.69,0-14.72,1.91-29,4.17m15.74,31.77c-6.66,1-19.15,2.95-27.76,4.23s-16.07,2.66-16.57,3.07a10.48,10.48,0,0,0-1.85,2.57,12.28,12.28,0,0,0-.93,4.63,23.2,23.2,0,0,0,.68,5.25,7.2,7.2,0,0,0,2.1,3.44,7,7,0,0,0,3.41,1c1.09,0,14.2-1.82,29.14-4.06,26.52-4,27.2-4.12,29-5.93s1.87-2,1.59-7.41c-.23-4.37-.57-5.84-1.56-6.83a6.71,6.71,0,0,0-3.22-1.56c-1.08-.17-7.41.55-14.07,1.6m-16.69,37.22c-14,2.07-26,4-26.61,4.25a6.36,6.36,0,0,0-2.13,2.66,15.62,15.62,0,0,0-1,5.53,17.84,17.84,0,0,0,.95,5.64,5.67,5.67,0,0,0,2.51,2.86c1.1.42,9.54-.55,28.66-3.31,14.91-2.16,28.2-4.2,29.55-4.55a4.94,4.94,0,0,0,3.51-2.68c.75-1.46,1-3.23.79-6.19s-.69-4.71-1.61-5.95c-1.18-1.59-1.81-1.82-5.21-1.9-2.12-.06-15.34,1.58-29.38,3.64m13.09,28.89c-3.24.3-11,1-17.3,1.55s-11.66,1.25-12,1.56-.48,3.63-.37,7.38l.18,6.81H439.7V264.1l-2.29-.09c-1.26-.05-4.94.16-8.18.46M378.5,296.41c-1.57.84-4.09,3.84-8.16,9.7-3.24,4.67-7.47,10.48-9.39,12.91-2.46,3.12-4.4,4.85-6.55,5.84-3,1.39-3.57,1.41-39.21,1.41H279l-2.37-2.51-2.37-2.52-12.17.24c-9.91.19-12.56.44-14.24,1.35a19.8,19.8,0,0,0-4.39,3.84,21.64,21.64,0,0,0-3.42,6,17.9,17.9,0,0,0-.75,7.43,22.39,22.39,0,0,0,2.13,7.84,14.43,14.43,0,0,0,4.7,5.72,27.38,27.38,0,0,0,5,2.82c1.53.57,16.05.79,54.24.82,36.31,0,53.21-.17,55.63-.68a32.14,32.14,0,0,0,6.41-2.24,34.59,34.59,0,0,0,6.93-5.65c2.19-2.27,6-6.49,8.47-9.37l4.48-5.24,37.66-.33,37.65-.32,1.62-2.94c1.46-2.66,1.64-3.83,1.89-12.48a86.79,86.79,0,0,0-.54-14.38c-.64-3.77-1.22-5.22-2.65-6.65l-1.83-1.84H420.93c-37.94,0-40.27.07-42.43,1.23m23.72,59.47.18,8.34h41.88l.19-8.34.18-8.34H402l.19,8.34"/><rect class="cls-4" x="270.18" y="384.43" width="212.65" height="98.23" rx="19.02"/><path class="cls-5" d="M343.6,466.08H296.72V453.87L327,412.48H297.65V401h45v12.21l-30.29,41.38H343.6Z"/><path class="cls-5" d="M355.16,466.08V455.73h14V411.36h-14V401h41.95v10.34h-14v44.37h14v10.35Z"/><path class="cls-5" d="M411.18,466.08V401h25.17a23.37,23.37,0,0,1,8.48,1.44,17.07,17.07,0,0,1,6.3,4.15,17.73,17.73,0,0,1,3.86,6.52,28.72,28.72,0,0,1,0,17.15,17.69,17.69,0,0,1-3.86,6.53,17.07,17.07,0,0,1-6.3,4.15,23.37,23.37,0,0,1-8.48,1.44H425.26v23.68Zm14.08-35h7.55c3.29,0,5.58-.62,6.85-1.86s1.91-3.29,1.91-6.15v-2.8q0-4.29-1.91-6.15c-1.27-1.24-3.56-1.87-6.85-1.87h-7.55Z"/><path class="cls-5" d="M82.56,453.77A33.53,33.53,0,0,1,58,443.53a33.52,33.52,0,0,1-10.24-24.61V90.15A33.53,33.53,0,0,1,58,65.54,33.53,33.53,0,0,1,82.56,55.3H222L326.49,159.84V264.38H291.64V177.27H204.52V90.15h-122V418.92H239.37v34.85Zm0-34.85v0Z"/></g></g></svg>